<svg width="18" height="21" viewBox="0 0 18 21" fill="none" xmlns="http://www.w3.org/2000/svg">
<path d="M15.0896 2.48528C13.4896 0.893983 11.3195 -1.67671e-08 9.05672 0C6.79394 1.67671e-08 4.62384 0.893983 3.02381 2.48528C1.42379 4.07658 0.524902 6.23485 0.524902 8.48528C0.524902 10.7357 1.42379 12.894 3.02381 14.4853L8.32272 19.7653C8.41619 19.859 8.5274 19.9334 8.64993 19.9842C8.77245 20.0349 8.90387 20.0611 9.03661 20.0611C9.16935 20.0611 9.30077 20.0349 9.4233 19.9842C9.54582 19.9334 9.65703 19.859 9.7505 19.7653L15.0896 14.4353C16.683 12.8506 17.5781 10.7013 17.5781 8.46028C17.5781 6.21923 16.683 4.06996 15.0896 2.48528ZM13.6518 13.0053L9.05672 17.5953L4.46166 13.0053C3.55385 12.1016 2.93581 10.9505 2.68566 9.69757C2.43552 8.44462 2.5645 7.14603 3.0563 5.96596C3.54809 4.7859 4.38063 3.77733 5.44867 3.06776C6.51671 2.35819 7.7723 1.97946 9.05672 1.97946C10.3411 1.97946 11.5967 2.35819 12.6648 3.06776C13.7328 3.77733 14.5653 4.7859 15.0571 5.96596C15.5489 7.14603 15.6779 8.44462 15.4278 9.69757C15.1776 10.9505 14.5596 12.1016 13.6518 13.0053ZM6.04027 5.41528C5.22855 6.22505 4.77275 7.32185 4.77275 8.46528C4.77275 9.60872 5.22855 10.7055 6.04027 11.5153C6.64332 12.1161 7.41133 12.5264 8.24796 12.6947C9.08459 12.863 9.95256 12.7819 10.743 12.4614C11.5334 12.141 12.2111 11.5956 12.691 10.8935C13.1709 10.1915 13.4317 9.36415 13.4406 8.51528C13.4452 7.94849 13.3354 7.38654 13.1178 6.86267C12.9002 6.3388 12.5792 5.86364 12.1737 5.46528C11.7752 5.05986 11.3 4.73682 10.7755 4.51475C10.251 4.29268 9.6875 4.17596 9.11745 4.17131C8.5474 4.16666 7.98206 4.27418 7.45395 4.48767C6.92584 4.70116 6.4454 5.01641 6.04027 5.41528ZM10.756 10.0953C10.375 10.48 9.87138 10.7212 9.33135 10.7775C8.79132 10.8339 8.24838 10.7019 7.79535 10.4042C7.34232 10.1065 7.00734 9.66152 6.84768 9.14536C6.68802 8.62921 6.71359 8.07392 6.92002 7.57444C7.12646 7.07495 7.50093 6.6623 7.97943 6.40702C8.45792 6.15174 9.01072 6.06969 9.54331 6.1749C10.0759 6.28011 10.5552 6.56604 10.8993 6.98381C11.2434 7.40158 11.4308 7.92525 11.4297 8.46528C11.415 9.08255 11.1547 9.66881 10.7057 10.0953H10.756Z" fill="#4B31EE"/>
</svg>
